<svg width="68" height="108" viewBox="0 0 68 108" fill="none" xmlns="http://www.w3.org/2000/svg">
<path d="M68 31.0053V31.2436C67.3447 31.1522 66.6671 30.8722 66.0396 30.6533C60.6137 28.7492 55.21 26.7675 49.798 24.8274C45.1913 17.369 36.0778 14.2843 27.739 16.9977L10.0508 10.7089L9.60925 10.4401C14.1632 5.68123 20.0028 2.30266 26.4589 0.836487C34.6977 -1.03434 43.0587 0.28494 50.4367 4.27326C58.8282 8.81036 64.3846 16.6983 67.017 25.7642L68 31.0053Z" fill="url(#paint0_linear_2_118)"/>
<path d="M18.1507 25.0796C17.3177 26.701 16.5652 28.3612 16.1709 30.1544C13.1525 43.8267 25.5593 55.7417 39.1323 51.9003C45.8189 50.0073 51.0976 44.187 52.0972 37.2885L67.2891 42.6238C64.8094 54.8936 58.9782 66.1297 52.9469 76.9611C47.3433 87.0275 41.2788 96.8611 35.317 106.711C34.5256 107.451 33.3232 107.429 32.5763 106.628L17.9203 84.1866L29.2469 76.6562L33.6953 83.1639L41.5287 67.873C40.6429 68.1058 39.7487 68.3081 38.8407 68.4495C22.2854 71.0049 6.24377 60.7251 1.58984 44.7579C-0.80099 36.5485 -0.645489 27.6516 3.08654 19.8801L18.1452 25.0824L18.1507 25.0796Z" fill="url(#paint1_linear_2_118)"/>
<defs>
<linearGradient id="paint0_linear_2_118" x1="9.60925" y1="15.6218" x2="68" y2="15.6218" gradientUnits="userSpaceOnUse">
<stop stop-color="#FA6E23"/>
<stop offset="1" stop-color="#E91219"/>
</linearGradient>
<linearGradient id="paint1_linear_2_118" x1="0" y1="63.5642" x2="67.2891" y2="63.5642" gradientUnits="userSpaceOnUse">
<stop stop-color="#FA6E23"/>
<stop offset="1" stop-color="#E91219"/>
</linearGradient>
</defs>
</svg>
