<svg width="8" height="15" viewBox="0 0 8 15" fill="none" xmlns="http://www.w3.org/2000/svg">
<path d="M5.08938 6.55215C5.18701 6.64899 5.26451 6.7642 5.31739 6.89113C5.37028 7.01807 5.3975 7.15422 5.3975 7.29174C5.3975 7.42925 5.37028 7.5654 5.31739 7.69234C5.26451 7.81927 5.18701 7.93448 5.08938 8.03132L0.308129 12.8022C0.210495 12.899 0.133001 13.0142 0.0801167 13.1411C0.0272326 13.2681 6.19888e-06 13.4042 6.19888e-06 13.5417C6.19888e-06 13.6792 0.0272326 13.8154 0.0801167 13.9423C0.133001 14.0693 0.210495 14.1845 0.308129 14.2813C0.503299 14.4753 0.767311 14.5842 1.0425 14.5842C1.3177 14.5842 1.58171 14.4753 1.77688 14.2813L6.55813 9.50007C7.14334 8.91413 7.47205 8.11986 7.47205 7.29174C7.47205 6.46361 7.14334 5.66934 6.55813 5.0834L1.77688 0.302153C1.58286 0.109711 1.32098 0.0012188 1.04771 6.86646e-05C0.910623 -0.000723839 0.774724 0.0255518 0.647809 0.0773897C0.520895 0.129228 0.405463 0.205609 0.308129 0.302153C0.210495 0.39899 0.133001 0.514197 0.0801167 0.641134C0.0272326 0.768071 6.19888e-06 0.904222 6.19888e-06 1.04174C6.19888e-06 1.17925 0.0272326 1.3154 0.0801167 1.44234C0.133001 1.56927 0.210495 1.68448 0.308129 1.78132L5.08938 6.55215Z" fill="#333333"/>
</svg>
