<svg width="35" height="35" viewBox="0 0 35 35" fill="none" xmlns="http://www.w3.org/2000/svg">
<circle cx="17.5" cy="17.5" r="17" fill="white" stroke="#34A853"/>
<path d="M24.562 20.9836C24.562 21.2386 24.5054 21.5007 24.385 21.7557C24.2645 22.0107 24.1087 22.2515 23.9033 22.4782C23.5562 22.8607 23.1737 23.1369 22.7416 23.314C22.3166 23.4911 21.8562 23.5832 21.3604 23.5832C20.6379 23.5832 19.8658 23.4132 19.0512 23.0661C18.2366 22.719 17.422 22.2515 16.6145 21.6636C15.8 21.0686 15.0279 20.4098 14.2912 19.6803C13.5616 18.9436 12.9029 18.1715 12.315 17.364C11.7341 16.5565 11.2666 15.749 10.9266 14.9486C10.5866 14.1411 10.4166 13.369 10.4166 12.6323C10.4166 12.1507 10.5016 11.6903 10.6716 11.2653C10.8416 10.8332 11.1108 10.4365 11.4862 10.0823C11.9395 9.63609 12.4354 9.4165 12.9595 9.4165C13.1579 9.4165 13.3562 9.459 13.5333 9.544C13.7175 9.629 13.8804 9.7565 14.0079 9.94067L15.6512 12.2569C15.7787 12.434 15.8708 12.5969 15.9345 12.7528C15.9983 12.9015 16.0337 13.0503 16.0337 13.1848C16.0337 13.3548 15.9841 13.5248 15.885 13.6878C15.7929 13.8507 15.6583 14.0207 15.4883 14.1907L14.95 14.7503C14.872 14.8282 14.8366 14.9203 14.8366 15.0336C14.8366 15.0903 14.8437 15.1398 14.8579 15.1965C14.8791 15.2532 14.9004 15.2957 14.9145 15.3382C15.042 15.5719 15.2616 15.8765 15.5733 16.2448C15.892 16.6132 16.232 16.9886 16.6004 17.364C16.9829 17.7394 17.3512 18.0865 17.7266 18.4053C18.095 18.7169 18.3995 18.9294 18.6404 19.0569C18.6758 19.0711 18.7183 19.0923 18.7679 19.1136C18.8245 19.1348 18.8812 19.1419 18.945 19.1419C19.0654 19.1419 19.1575 19.0994 19.2354 19.0215L19.7737 18.4903C19.9508 18.3132 20.1208 18.1786 20.2837 18.0936C20.4466 17.9944 20.6095 17.9448 20.7866 17.9448C20.9212 17.9448 21.0629 17.9732 21.2187 18.0369C21.3745 18.1007 21.5375 18.1928 21.7145 18.3132L24.0591 19.9778C24.2433 20.1053 24.3708 20.254 24.4487 20.4311C24.5195 20.6082 24.562 20.7853 24.562 20.9836Z" stroke="#34A853" stroke-width="1.5" stroke-miterlimit="10"/>
</svg>
