<svg width="24" height="24" viewBox="0 0 24 24" fill="none" xmlns="http://www.w3.org/2000/svg">
<path d="M23.4301 17.5032C22.3183 12.1073 20.3983 6.73344 20.3789 6.67978C19.0081 2.98379 15.0672 0.5 10.5724 0.5C5.01811 0.5 0.5 4.96259 0.5 10.4486C0.5 11.587 0.709558 14.3401 1.00934 16.4683C1.28002 18.3858 2.82066 19.896 4.75617 20.1404C7.88596 20.5352 11.0449 21.4436 14.7044 22.4958C15.6852 22.7784 16.7068 23.0726 17.7837 23.3726C18.0922 23.4588 18.4066 23.5 18.7151 23.5C19.8347 23.5 20.8999 22.9528 21.5325 22.0013L22.9441 20.033C23.4389 19.2885 23.6125 18.3896 23.4301 17.5032ZM22.4794 17.6939C22.5094 17.8377 22.5211 17.9805 22.5259 18.1232L11.6512 14.5758C13.0502 13.996 14.0359 12.6305 14.0359 11.0408C14.0359 9.88993 13.5101 8.86939 12.6951 8.16603H19.857C19.857 8.16603 19.8609 8.16507 19.8638 8.16507C20.4827 10.0241 21.6887 13.8494 22.4794 17.6939ZM10.1542 8.16603C11.7589 8.16603 13.0648 9.45584 13.0648 11.0408C13.0648 12.6257 11.7589 13.9155 10.1542 13.9155C8.54956 13.9155 7.2437 12.6257 7.2437 11.0408C7.2437 9.45584 8.54956 8.16603 10.1542 8.16603ZM20.7311 21.4608C20.148 22.3376 19.0682 22.7344 18.0466 22.4498C16.9736 22.1508 15.9539 21.8576 14.975 21.5758C11.2767 20.5131 8.0829 19.5951 4.87938 19.1898C3.37658 19.001 2.18035 17.8262 1.96982 16.3351C1.68362 14.3056 1.46921 11.5535 1.46921 10.4476C1.47018 5.49154 5.55365 1.45825 10.5724 1.45825C14.7441 1.46496 18.3658 3.75902 19.5378 7.20777H10.1542C8.01402 7.20777 6.27352 8.92688 6.27352 11.0408C6.27352 12.6928 7.34266 14.0909 8.82897 14.6285C8.8736 14.6649 22.36 19.0786 22.36 19.0786C22.3018 19.2233 22.23 19.3623 22.1427 19.4926L20.7311 21.4608Z" fill="#333333" stroke="#333333"/>
</svg>
