<svg width="21" height="21" viewBox="0 0 21 21" fill="none" xmlns="http://www.w3.org/2000/svg">
<path d="M7.58789 12.5386C7.58789 13.6674 8.45414 14.5774 9.53039 14.5774H11.7266C12.6629 14.5774 13.4241 13.7811 13.4241 12.8011C13.4241 11.7336 12.9604 11.3574 12.2691 11.1124L8.74289 9.88736C8.05164 9.64236 7.58789 9.26611 7.58789 8.19861C7.58789 7.21861 8.34914 6.42236 9.28539 6.42236H11.4816C12.5579 6.42236 13.4241 7.33236 13.4241 8.46111" stroke="url(#paint0_linear_78_3)" stroke-width="1.5" stroke-linecap="round" stroke-linejoin="round"/>
<path d="M10.5 5.25V15.75" stroke="url(#paint1_linear_78_3)" stroke-width="1.5" stroke-linecap="round" stroke-linejoin="round"/>
<path d="M10.5 19.25C15.3325 19.25 19.25 15.3325 19.25 10.5C19.25 5.66751 15.3325 1.75 10.5 1.75C5.66751 1.75 1.75 5.66751 1.75 10.5C1.75 15.3325 5.66751 19.25 10.5 19.25Z" stroke="url(#paint2_linear_78_3)" stroke-width="1.5" stroke-linecap="round" stroke-linejoin="round"/>
<defs>
<linearGradient id="paint0_linear_78_3" x1="10.506" y1="6.42236" x2="10.506" y2="14.5774" gradientUnits="userSpaceOnUse">
<stop stop-color="#FA6E23"/>
<stop offset="1" stop-color="#E91219"/>
</linearGradient>
<linearGradient id="paint1_linear_78_3" x1="11" y1="5.25" x2="11" y2="15.75" gradientUnits="userSpaceOnUse">
<stop stop-color="#FA6E23"/>
<stop offset="1" stop-color="#E91219"/>
</linearGradient>
<linearGradient id="paint2_linear_78_3" x1="10.5" y1="1.75" x2="10.5" y2="19.25" gradientUnits="userSpaceOnUse">
<stop stop-color="#FA6E23"/>
<stop offset="1" stop-color="#E91219"/>
</linearGradient>
</defs>
</svg>
