<svg width="132" height="132" viewBox="0 0 132 132" fill="none" xmlns="http://www.w3.org/2000/svg">
<path d="M66.0156 132.031C102.475 132.031 132.031 102.475 132.031 66.0156C132.031 29.5562 102.475 0 66.0156 0C29.5562 0 0 29.5562 0 66.0156C0 102.475 29.5562 132.031 66.0156 132.031Z" fill="url(#paint0_linear_114_1465)"/>
<path fill-rule="evenodd" clip-rule="evenodd" d="M31.8543 105.747C30.8716 105.747 30.0273 105.402 29.3461 104.72L28.0258 103.401C26.1394 101.513 27.3756 98.8766 27.8406 97.8841L46.0487 59.0279C46.1777 58.7529 46.4325 58.5574 46.7312 58.505C47.028 58.4519 47.3362 58.549 47.5508 58.7638L74.0076 85.2199C74.2224 85.4346 74.3181 85.7408 74.2659 86.0403C74.2136 86.3391 74.0186 86.594 73.7431 86.7226L34.912 104.905C34.0754 105.298 32.971 105.747 31.8543 105.747ZM47.1723 61.021L29.5286 98.6757C28.714 100.413 28.661 101.4 29.344 102.084L30.6639 103.404C30.9926 103.732 31.3712 103.885 31.855 103.885C32.6126 103.885 33.5119 103.504 34.1219 103.219L71.7513 85.6L47.1723 61.021Z" fill="#F5F5F5"/>
<path fill-rule="evenodd" clip-rule="evenodd" d="M59.7383 93.1846C59.4121 93.1846 59.0959 93.0133 58.925 92.7092L43.5378 65.3034C43.2861 64.8549 43.4454 64.2868 43.8944 64.0348C44.3432 63.7824 44.9107 63.9424 45.1627 64.3912L60.5495 91.7971C60.8012 92.2455 60.642 92.8136 60.1929 93.0656C60.0488 93.1466 59.8927 93.1846 59.7383 93.1846Z" fill="#F5F5F5"/>
<path fill-rule="evenodd" clip-rule="evenodd" d="M50.4547 97.5317C50.1286 97.5317 49.8124 97.3604 49.6414 97.0563L38.2045 76.6851C37.9529 76.2368 38.1121 75.6688 38.5611 75.4166C39.0088 75.1644 39.5774 75.3236 39.8296 75.7731L51.2659 96.1438C51.5176 96.592 51.3584 97.1601 50.9096 97.4123C50.7652 97.4935 50.6095 97.5317 50.4547 97.5317Z" fill="#F5F5F5"/>
<path fill-rule="evenodd" clip-rule="evenodd" d="M41.1708 101.878C40.8447 101.878 40.5286 101.707 40.3577 101.403L32.8713 88.0683C32.6196 87.62 32.7788 87.052 33.2279 86.7998C33.6767 86.5478 34.2442 86.7068 34.4962 87.1564L41.9826 100.491C42.2343 100.939 42.0751 101.507 41.6262 101.759C41.4821 101.84 41.3254 101.878 41.1708 101.878Z" fill="#F5F5F5"/>
<path fill-rule="evenodd" clip-rule="evenodd" d="M76.5893 89.437C75.9437 89.437 75.3375 89.1857 74.8828 88.7317L44.0397 57.8879C43.5848 57.433 43.3345 56.8274 43.3345 56.1819C43.3345 55.5365 43.5848 54.9301 44.0397 54.4759L46.9243 51.5921C47.8328 50.6832 49.4274 50.6825 50.3363 51.5921L81.1797 82.4351C81.6339 82.8898 81.885 83.496 81.885 84.1419C81.885 84.7875 81.6339 85.3937 81.1797 85.8484L78.2951 88.7332C77.8406 89.1864 77.235 89.437 76.5893 89.437ZM48.6303 52.7492C48.4821 52.7492 48.3449 52.8056 48.242 52.9085L45.3574 55.7931C45.2543 55.8962 45.1982 56.0337 45.1982 56.1819C45.1982 56.3301 45.2543 56.4677 45.3574 56.5708L76.2008 87.4138C76.4053 87.6195 76.7735 87.6195 76.978 87.4138L79.8626 84.529C79.9655 84.4269 80.0218 84.2884 80.0218 84.1404C80.0218 83.9922 79.9655 83.8544 79.8626 83.7515L49.0191 52.9092C48.9164 52.8063 48.7778 52.7492 48.6303 52.7492Z" fill="#F5F5F5"/>
<path fill-rule="evenodd" clip-rule="evenodd" d="M61.3932 60.3715C61.1823 60.3715 60.9702 60.3004 60.7962 60.1542C60.4015 59.8244 60.3497 59.2375 60.679 58.8422C60.7742 58.7283 70.1292 47.2945 63.6302 35.6555C63.3791 35.2067 63.5403 34.6387 63.9891 34.3883C64.4381 34.1366 65.0056 34.2982 65.2564 34.7472C72.3888 47.5201 62.2105 59.9141 62.1073 60.0383C61.9231 60.2576 61.6592 60.3715 61.3932 60.3715Z" fill="#F5F5F5"/>
<path fill-rule="evenodd" clip-rule="evenodd" d="M67.0117 61.4947C66.7496 61.4947 66.4884 61.3847 66.3044 61.1705C65.9688 60.7798 66.0133 60.1923 66.4035 59.8564L77.7998 50.0652C78.1905 49.7307 78.7792 49.7747 79.1131 50.1646C79.4487 50.5553 79.4043 51.143 79.014 51.4786L67.6184 61.2695C67.4423 61.4208 67.2265 61.4947 67.0117 61.4947Z" fill="#F5F5F5"/>
<path fill-rule="evenodd" clip-rule="evenodd" d="M74.5559 62.9399C74.2032 62.9399 73.8655 62.738 73.7083 62.397C73.4937 61.9293 73.698 61.3763 74.1658 61.1613L97.923 50.2457C98.392 50.0322 98.9447 50.2358 99.1587 50.7037C99.3735 51.1714 99.169 51.7245 98.7013 51.9394L74.9446 62.8543C74.818 62.912 74.6859 62.9399 74.5559 62.9399Z" fill="#F5F5F5"/>
<path fill-rule="evenodd" clip-rule="evenodd" d="M95.7423 70.3232C95.5618 70.3232 95.378 70.271 95.2175 70.1609C88.5671 65.6272 72.6636 68.9836 72.5039 69.0179C72.0008 69.1272 71.5055 68.8064 71.397 68.3036C71.2882 67.8009 71.6081 67.3053 72.1112 67.1967C72.7957 67.0485 88.958 63.6378 96.2683 68.6219C96.6931 68.9117 96.8025 69.4915 96.5128 69.9164C96.3324 70.1809 96.0398 70.3232 95.7423 70.3232Z" fill="#F5F5F5"/>
<path fill-rule="evenodd" clip-rule="evenodd" d="M101.278 75.8262C100.286 75.8262 99.3532 75.4399 98.652 74.7387C97.2049 73.2908 97.2049 70.9361 98.652 69.488C99.3532 68.7875 100.286 68.4005 101.278 68.4005C102.269 68.4005 103.202 68.7868 103.903 69.488C105.35 70.9357 105.35 73.2906 103.903 74.7387C103.201 75.4407 102.269 75.8262 101.278 75.8262ZM101.278 70.2646C100.784 70.2646 100.32 70.4572 99.9704 70.8066C99.2492 71.5273 99.2492 72.701 99.9704 73.4214C100.669 74.1195 101.887 74.1208 102.585 73.4214C103.307 72.701 103.307 71.5273 102.585 70.8066C102.235 70.4572 101.772 70.2646 101.278 70.2646Z" fill="#F5F5F5"/>
<path fill-rule="evenodd" clip-rule="evenodd" d="M73.8337 44.6123C72.8422 44.6123 71.9093 44.2261 71.2081 43.5247C69.7607 42.0769 69.7607 39.7222 71.2081 38.2749C71.9093 37.5737 72.8416 37.1874 73.8337 37.1874C74.8247 37.1874 75.7578 37.5737 76.4592 38.2749C77.9063 39.7222 77.9063 42.0769 76.4592 43.5247C75.7576 44.2262 74.8247 44.6123 73.8337 44.6123ZM73.8337 39.0507C73.3396 39.0507 72.8757 39.2429 72.5265 39.5924C71.8058 40.3136 71.8058 41.4865 72.5265 42.2077C73.2244 42.9051 74.4427 42.9065 75.1411 42.2077C75.8618 41.4865 75.8618 40.3136 75.1411 39.5924C74.791 39.2433 74.3273 39.0507 73.8337 39.0507Z" fill="#F5F5F5"/>
<path fill-rule="evenodd" clip-rule="evenodd" d="M90.0995 45.0509H87.9182C87.4038 45.0509 86.9866 44.6336 86.9866 44.1193C86.9866 43.6052 87.4044 43.1877 87.9182 43.1877H90.0995C90.6139 43.1877 91.0311 43.6052 91.0311 44.1193C91.0311 44.6336 90.6131 45.0509 90.0995 45.0509Z" fill="#F5F5F5"/>
<path fill-rule="evenodd" clip-rule="evenodd" d="M85.8498 49.2998C85.3357 49.2998 84.9182 48.8825 84.9182 48.3682V46.1868C84.9182 45.6725 85.3362 45.2552 85.8498 45.2552C86.3636 45.2552 86.7814 45.6725 86.7814 46.1868V48.3682C86.7821 48.8825 86.3643 49.2998 85.8498 49.2998Z" fill="#F5F5F5"/>
<path fill-rule="evenodd" clip-rule="evenodd" d="M83.7821 45.0509H81.6005C81.0864 45.0509 80.6689 44.6336 80.6689 44.1193C80.6689 43.6052 81.0868 43.1877 81.6005 43.1877H83.7821C84.2962 43.1877 84.7137 43.6052 84.7137 44.1193C84.7137 44.6336 84.2966 45.0509 83.7821 45.0509Z" fill="#F5F5F5"/>
<path fill-rule="evenodd" clip-rule="evenodd" d="M85.8498 42.9827C85.3357 42.9827 84.9182 42.5653 84.9182 42.0512V39.8696C84.9182 39.3555 85.3362 38.938 85.8498 38.938C86.3636 38.938 86.7814 39.3554 86.7814 39.8696V42.0512C86.7821 42.566 86.3643 42.9827 85.8498 42.9827Z" fill="#F5F5F5"/>
<path fill-rule="evenodd" clip-rule="evenodd" d="M100.664 61.3866H98.4831C97.969 61.3866 97.5515 60.9691 97.5515 60.455C97.5515 59.9407 97.9693 59.5234 98.4831 59.5234H100.664C101.178 59.5234 101.596 59.9407 101.596 60.455C101.596 60.9691 101.178 61.3866 100.664 61.3866Z" fill="#F5F5F5"/>
<path fill-rule="evenodd" clip-rule="evenodd" d="M96.414 65.6359C95.8992 65.6359 95.4824 65.2185 95.4824 64.7043L95.4832 62.5228C95.4839 62.0086 95.901 61.5919 96.4147 61.5919C96.9296 61.5919 97.3463 62.0094 97.3463 62.5235L97.3456 64.7051C97.3456 65.2185 96.9281 65.6359 96.414 65.6359Z" fill="#F5F5F5"/>
<path fill-rule="evenodd" clip-rule="evenodd" d="M94.3466 61.3866H92.165C91.6509 61.3866 91.2334 60.9691 91.2334 60.455C91.2334 59.9407 91.6512 59.5234 92.165 59.5234H94.3466C94.8607 59.5234 95.2781 59.9407 95.2781 60.455C95.2781 60.9691 94.8607 61.3866 94.3466 61.3866Z" fill="#F5F5F5"/>
<path fill-rule="evenodd" clip-rule="evenodd" d="M96.414 59.3181C95.8992 59.3181 95.4824 58.9008 95.4824 58.3865L95.4832 56.2051C95.4839 55.6908 95.901 55.2743 96.4147 55.2743C96.9296 55.2743 97.3463 55.6916 97.3463 56.2059L97.3456 58.3873C97.3456 58.9016 96.9281 59.3181 96.414 59.3181Z" fill="#F5F5F5"/>
<path fill-rule="evenodd" clip-rule="evenodd" d="M59.0497 42.0066H56.8684C56.354 42.0066 55.9368 41.5893 55.9368 41.075C55.9368 40.5609 56.354 40.1434 56.8684 40.1434H59.0497C59.5641 40.1434 59.9813 40.5609 59.9813 41.075C59.9813 41.5893 59.5641 42.0066 59.0497 42.0066Z" fill="#F5F5F5"/>
<path fill-rule="evenodd" clip-rule="evenodd" d="M54.801 46.2556C54.2869 46.2556 53.8694 45.8383 53.8694 45.324V43.1426C53.8694 42.6283 54.2868 42.2111 54.801 42.2111C55.3153 42.2111 55.7326 42.6283 55.7326 43.1426V45.324C55.7326 45.8383 55.3155 46.2556 54.801 46.2556Z" fill="#F5F5F5"/>
<path fill-rule="evenodd" clip-rule="evenodd" d="M52.7333 42.0066H50.5517C50.0376 42.0066 49.6201 41.5893 49.6201 41.075C49.6201 40.5609 50.0376 40.1434 50.5517 40.1434H52.7333C53.2474 40.1434 53.6649 40.5609 53.6649 41.075C53.6649 41.5893 53.2474 42.0066 52.7333 42.0066Z" fill="#F5F5F5"/>
<path fill-rule="evenodd" clip-rule="evenodd" d="M54.801 39.939C54.2869 39.939 53.8694 39.5216 53.8694 39.0075V36.8259C53.8694 36.3117 54.2868 35.8943 54.801 35.8943C55.3153 35.8943 55.7326 36.3117 55.7326 36.8259V39.0075C55.7326 39.5216 55.3155 39.939 54.801 39.939Z" fill="#F5F5F5"/>
<path fill-rule="evenodd" clip-rule="evenodd" d="M84.1767 80.4283C83.1859 80.4283 82.2528 80.042 81.5514 79.3408C80.1043 77.8929 80.1043 75.5382 81.5514 74.0901C82.2528 73.3888 83.1852 73.0026 84.1767 73.0026C85.1685 73.0026 86.1013 73.3888 86.8025 74.0901C88.2499 75.5378 88.2499 77.8927 86.8025 79.3408C86.1013 80.0422 85.1685 80.4283 84.1767 80.4283ZM84.1767 74.8661C83.6831 74.8661 83.2193 75.0589 82.8695 75.4083C82.1481 76.1287 82.1481 77.3024 82.8695 78.0231C83.5687 78.7223 84.7864 78.7212 85.4841 78.0231C86.2055 77.3024 86.2055 76.1287 85.4841 75.4083C85.1354 75.0589 84.6712 74.8661 84.1767 74.8661Z" fill="#F5F5F5"/>
<path fill-rule="evenodd" clip-rule="evenodd" d="M62.0143 33.6786C61.0225 33.6786 60.0902 33.2924 59.389 32.5912C57.9413 31.1434 57.9413 28.7885 59.389 27.3404C60.0902 26.6392 61.0225 26.2529 62.0143 26.2529C63.006 26.2529 63.9383 26.6392 64.6395 27.3404C66.0869 28.7878 66.0869 31.143 64.6395 32.5904C63.9383 33.2923 63.006 33.6786 62.0143 33.6786ZM62.0143 28.117C61.5202 28.117 61.0556 28.3092 60.7061 28.6587C59.9857 29.3791 59.9857 30.5528 60.7061 31.2735C61.405 31.9716 62.6231 31.9716 63.3217 31.2735C64.0422 30.5521 64.0422 29.3791 63.3217 28.6579C62.9725 28.3091 62.5086 28.117 62.0143 28.117Z" fill="#F5F5F5"/>
<defs>
<linearGradient id="paint0_linear_114_1465" x1="66.0156" y1="0" x2="66.0156" y2="132.031" gradientUnits="userSpaceOnUse">
<stop stop-color="#FA6E23"/>
<stop offset="1" stop-color="#E91219"/>
</linearGradient>
</defs>
</svg>
