<svg width="16" height="16" viewBox="0 0 16 16" fill="none" xmlns="http://www.w3.org/2000/svg">
<path d="M8 16C12.4112 16 16 12.4112 16 8C16 3.5888 12.4112 0 8 0C3.5888 0 0 3.5888 0 8C0 12.4112 3.5888 16 8 16ZM2.47173 13.0136C3.13147 12.7437 3.8384 12.5259 4.58187 12.3627C4.868 13.3773 5.25493 14.3072 5.7304 15.1128C4.4648 14.708 3.3448 13.9752 2.47173 13.0136ZM7.73333 11.4728C6.78107 11.4872 5.85387 11.5768 4.9688 11.7397C4.7048 10.6539 4.5568 9.4792 4.5376 8.26667H7.73333V11.4728ZM7.73333 12.0061V15.4597C7.30853 15.4448 6.89227 15.396 6.48827 15.3125C5.9032 14.4579 5.43627 13.4168 5.1056 12.2571C5.94693 12.1045 6.828 12.02 7.73333 12.0061ZM8.26667 12.0061C9.17227 12.02 10.0531 12.1045 10.8944 12.2571C10.5637 13.4168 10.0971 14.4581 9.51173 15.3125C9.10773 15.396 8.69147 15.4448 8.26667 15.4597V12.0061ZM8.26667 11.4728V8.26667H11.4624C11.4432 9.47947 11.2955 10.6541 11.0312 11.7397C10.1459 11.5768 9.21867 11.4869 8.26667 11.4728ZM11.9957 8.26667H15.46C15.4027 9.89093 14.8245 11.3837 13.8872 12.5845C13.1611 12.2755 12.3784 12.0291 11.5536 11.8469C11.8253 10.7245 11.9768 9.51387 11.9957 8.26667ZM11.9957 7.73333C11.9765 6.4864 11.8251 5.27547 11.5536 4.15307C12.3784 3.97067 13.1611 3.72453 13.8872 3.41547C14.8245 4.61627 15.4027 6.10933 15.46 7.73333H11.9957ZM11.4624 7.73333H8.26667V4.5272C9.21893 4.5128 10.1461 4.4232 11.0312 4.26027C11.2952 5.34613 11.4432 6.5208 11.4624 7.73333ZM8.26667 3.99387V0.54C8.69147 0.554933 9.10773 0.603733 9.51173 0.6872C10.0968 1.54187 10.5637 2.58293 10.8944 3.74267C10.0531 3.8952 9.172 3.97973 8.26667 3.9936V3.99387ZM7.73333 3.99387C6.82773 3.98 5.94693 3.89547 5.1056 3.74293C5.43627 2.5832 5.90293 1.54187 6.48827 0.687467C6.89227 0.604 7.30853 0.5552 7.73333 0.540267V3.99387ZM7.73333 4.5272V7.73333H4.5376C4.5568 6.52053 4.70453 5.34587 4.9688 4.26027C5.85413 4.4232 6.78133 4.51307 7.73333 4.5272ZM4.00427 7.73333H0.54C0.597333 6.10907 1.17547 4.61627 2.1128 3.41547C2.83893 3.72453 3.6216 3.97093 4.4464 4.15307C4.17467 5.27547 4.0232 6.48613 4.00427 7.73333ZM4.00427 8.26667C4.02347 9.5136 4.17493 10.7245 4.4464 11.8469C3.6216 12.0293 2.83893 12.2755 2.1128 12.5845C1.17547 11.3837 0.597333 9.89067 0.54 8.26667H4.00427ZM10.2696 15.1128C10.7453 14.3072 11.1323 13.3773 11.4181 12.3627C12.1616 12.5259 12.8683 12.7435 13.5283 13.0136C12.6552 13.9752 11.5352 14.708 10.2696 15.1128ZM13.5283 2.9864C12.8685 3.25627 12.1616 3.47413 11.4181 3.63733C11.132 2.62267 10.7451 1.6928 10.2696 0.8872C11.5352 1.292 12.6552 2.0248 13.5283 2.9864ZM5.7304 0.8872C5.25467 1.6928 4.86773 2.62267 4.58187 3.63733C3.8384 3.47413 3.13173 3.25653 2.47173 2.9864C3.3448 2.0248 4.4648 1.292 5.7304 0.8872Z" fill="url(#paint0_linear_2_138)"/>
<defs>
<linearGradient id="paint0_linear_2_138" x1="8" y1="0" x2="8" y2="16" gradientUnits="userSpaceOnUse">
<stop stop-color="#FA6E23"/>
<stop offset="1" stop-color="#E91219"/>
</linearGradient>
</defs>
</svg>
