<svg width="22" height="22" viewBox="0 0 22 22" fill="none" xmlns="http://www.w3.org/2000/svg">
<g clip-path="url(#clip0_114_1041)">
<path d="M12.375 17.875C17.3113 17.875 21.3125 14.1818 21.3125 9.625C21.3125 5.06825 17.3113 1.375 12.375 1.375C7.43875 1.375 3.4375 5.06825 3.4375 9.625C3.4375 9.625 4.08238 13.75 0.6875 13.75C0.6875 17.1875 6.875 17.875 12.375 17.875Z" fill="white"/>
<path d="M12.375 18.5625C4.048 18.5625 0 16.9881 0 13.75C0 13.3705 0.308 13.0625 0.6875 13.0625C1.3695 13.0625 1.86725 12.8672 2.20963 12.4685C3.01262 11.5294 2.761 9.74875 2.75825 9.73088C2.75 4.697 7.0675 0.6875 12.375 0.6875C17.6811 0.6875 22 4.697 22 9.625C22 14.553 17.6811 18.5625 12.375 18.5625ZM1.4795 14.366C2.134 16.2154 5.8685 17.1875 12.375 17.1875C16.9249 17.1875 20.625 13.794 20.625 9.625C20.625 5.45463 16.9249 2.0625 12.375 2.0625C7.82512 2.0625 4.125 5.45463 4.125 9.625C4.13325 9.625 4.47563 11.9364 3.25463 13.3623C2.7995 13.893 2.2055 14.2299 1.4795 14.366Z" fill="#333333"/>
<path d="M15.125 21.3125C16.6438 21.3125 17.875 20.0813 17.875 18.5625C17.875 17.0437 16.6438 15.8125 15.125 15.8125C13.6062 15.8125 12.375 17.0437 12.375 18.5625C12.375 20.0813 13.6062 21.3125 15.125 21.3125Z" fill="#333333"/>
<path d="M6.875 21.3125C8.39378 21.3125 9.625 20.0813 9.625 18.5625C9.625 17.0437 8.39378 15.8125 6.875 15.8125C5.35622 15.8125 4.125 17.0437 4.125 18.5625C4.125 20.0813 5.35622 21.3125 6.875 21.3125Z" fill="#333333"/>
<path d="M9.65251 8.25C9.27301 8.25 8.95813 7.942 8.95813 7.5625C8.95813 7.183 9.25926 6.875 9.63876 6.875H9.65251C10.032 6.875 10.34 7.183 10.34 7.5625C10.34 7.942 10.032 8.25 9.65251 8.25Z" fill="#333333"/>
<path d="M15.1525 8.25C14.7744 8.25 14.4581 7.942 14.4581 7.5625C14.4581 7.183 14.7593 6.875 15.1388 6.875H15.1525C15.532 6.875 15.84 7.183 15.84 7.5625C15.84 7.942 15.532 8.25 15.1525 8.25Z" fill="#333333"/>
<path d="M12.375 14.4375C10.3923 14.4375 8.70239 13.0873 8.26651 11.1513C8.18401 10.78 8.41639 10.4129 8.78626 10.329C9.15751 10.2493 9.52464 10.4775 9.60851 10.8488C9.90139 12.1523 11.0399 13.0625 12.375 13.0625C13.7115 13.0625 14.8486 12.1523 15.1415 10.8488C15.2268 10.4789 15.5898 10.2465 15.9638 10.329C16.335 10.4129 16.5674 10.78 16.4849 11.1513C16.049 13.0859 14.3591 14.4375 12.375 14.4375Z" fill="#333333"/>
</g>
<defs>
<clipPath id="clip0_114_1041">
<rect width="22" height="22" fill="white"/>
</clipPath>
</defs>
</svg>
