<svg width="24" height="24" viewBox="0 0 24 24" fill="none" xmlns="http://www.w3.org/2000/svg">
<path d="M11.7993 12.78C11.7312 12.77 11.6435 12.77 11.5657 12.78C9.85222 12.72 8.48926 11.28 8.48926 9.50998C8.48926 7.69998 9.91063 6.22998 11.6825 6.22998C13.4446 6.22998 14.8757 7.69998 14.8757 9.50998C14.866 11.28 13.5127 12.72 11.7993 12.78Z" stroke="#E91219" stroke-width="1.5" stroke-linecap="round" stroke-linejoin="round"/>
<path d="M18.2442 19.3801C16.5113 21.0101 14.2138 22.0001 11.6825 22.0001C9.15133 22.0001 6.85376 21.0101 5.12085 19.3801C5.2182 18.4401 5.80233 17.5201 6.84402 16.8001C9.51154 14.9801 13.873 14.9801 16.5211 16.8001C17.5628 17.5201 18.1469 18.4401 18.2442 19.3801Z" stroke="#E91219" stroke-width="1.5" stroke-linecap="round" stroke-linejoin="round"/>
<path d="M11.6826 22C17.0593 22 21.418 17.5228 21.418 12C21.418 6.47715 17.0593 2 11.6826 2C6.30585 2 1.94714 6.47715 1.94714 12C1.94714 17.5228 6.30585 22 11.6826 22Z" stroke="#E91219" stroke-width="1.5" stroke-linecap="round" stroke-linejoin="round"/>
</svg>
