<svg width="18" height="18" viewBox="0 0 18 18" fill="none" xmlns="http://www.w3.org/2000/svg">
<path d="M10.125 14.625C14.1637 14.625 17.4375 11.6032 17.4375 7.875C17.4375 4.14675 14.1637 1.125 10.125 1.125C6.08625 1.125 2.8125 4.14675 2.8125 7.875C2.8125 7.875 3.34013 11.25 0.5625 11.25C0.5625 14.0625 5.625 14.625 10.125 14.625Z" fill="white"/>
<path d="M10.125 15.1875C3.312 15.1875 0 13.8994 0 11.25C0 10.9395 0.252 10.6875 0.5625 10.6875C1.1205 10.6875 1.52775 10.5278 1.80788 10.2015C2.46487 9.43312 2.259 7.97625 2.25675 7.96163C2.25 3.843 5.7825 0.5625 10.125 0.5625C14.4664 0.5625 18 3.843 18 7.875C18 11.907 14.4664 15.1875 10.125 15.1875ZM1.2105 11.754C1.746 13.2671 4.8015 14.0625 10.125 14.0625C13.8476 14.0625 16.875 11.286 16.875 7.875C16.875 4.46287 13.8476 1.6875 10.125 1.6875C6.40238 1.6875 3.375 4.46287 3.375 7.875C3.38175 7.875 3.66188 9.76613 2.66288 10.9328C2.2905 11.367 1.8045 11.6426 1.2105 11.754Z" fill="#333333"/>
<path d="M12.375 17.4375C13.6176 17.4375 14.625 16.4301 14.625 15.1875C14.625 13.9449 13.6176 12.9375 12.375 12.9375C11.1324 12.9375 10.125 13.9449 10.125 15.1875C10.125 16.4301 11.1324 17.4375 12.375 17.4375Z" fill="#333333"/>
<path d="M5.625 17.4375C6.86764 17.4375 7.875 16.4301 7.875 15.1875C7.875 13.9449 6.86764 12.9375 5.625 12.9375C4.38236 12.9375 3.375 13.9449 3.375 15.1875C3.375 16.4301 4.38236 17.4375 5.625 17.4375Z" fill="#333333"/>
<path d="M7.89747 6.75C7.58697 6.75 7.32935 6.498 7.32935 6.1875C7.32935 5.877 7.57572 5.625 7.88622 5.625H7.89747C8.20797 5.625 8.45997 5.877 8.45997 6.1875C8.45997 6.498 8.20797 6.75 7.89747 6.75Z" fill="#333333"/>
<path d="M12.3975 6.75C12.0881 6.75 11.8293 6.498 11.8293 6.1875C11.8293 5.877 12.0757 5.625 12.3862 5.625H12.3975C12.708 5.625 12.96 5.877 12.96 6.1875C12.96 6.498 12.708 6.75 12.3975 6.75Z" fill="#333333"/>
<path d="M10.125 11.8126C8.50274 11.8126 7.12011 10.7079 6.76349 9.12386C6.69599 8.82011 6.88611 8.51974 7.18874 8.45111C7.49249 8.38586 7.79286 8.57261 7.86149 8.87636C8.10111 9.94286 9.03261 10.6876 10.125 10.6876C11.2185 10.6876 12.1489 9.94286 12.3885 8.87636C12.4582 8.57373 12.7552 8.38361 13.0612 8.45111C13.365 8.51974 13.5551 8.82011 13.4876 9.12386C13.131 10.7067 11.7484 11.8126 10.125 11.8126Z" fill="#333333"/>
</svg>
