<svg width="35" height="35" viewBox="0 0 35 35" fill="none" xmlns="http://www.w3.org/2000/svg">
<circle cx="17.5" cy="17.5" r="17" fill="white" stroke="#E91219"/>
<path d="M15.0208 22.4582H14.6666C11.8333 22.4582 10.4166 21.7498 10.4166 18.2082V14.6665C10.4166 11.8332 11.8333 10.4165 14.6666 10.4165H20.3333C23.1666 10.4165 24.5833 11.8332 24.5833 14.6665V18.2082C24.5833 21.0415 23.1666 22.4582 20.3333 22.4582H19.9791C19.7595 22.4582 19.547 22.5644 19.4125 22.7415L18.35 24.1582C17.8825 24.7815 17.1175 24.7815 16.65 24.1582L15.5875 22.7415C15.4741 22.5857 15.212 22.4582 15.0208 22.4582Z" stroke="#E91219" stroke-width="1.5" stroke-miterlimit="10" stroke-linecap="round" stroke-linejoin="round"/>
<path d="M13.9584 14.6665H21.0417" stroke="#E91219" stroke-width="1.5" stroke-linecap="round" stroke-linejoin="round"/>
<path d="M13.9584 18.2085H18.2084" stroke="#E91219" stroke-width="1.5" stroke-linecap="round" stroke-linejoin="round"/>
</svg>
