<svg width="123" height="251" viewBox="0 0 123 251" fill="none" xmlns="http://www.w3.org/2000/svg">
<path d="M119.89 54.1186V54.2352L88.3017 42.9731C82.7465 33.8095 72.691 27.7238 61.0967 27.648C57.3602 27.6247 53.7694 28.2659 50.4176 29.4551L18.5958 18.1056C25.6433 10.7549 34.5271 5.15887 44.4309 2.24426C48.1908 1.1367 52.0323 0.501314 55.9145 0H66.0399C67.6313 0.221511 69.2401 0.355588 70.8082 0.687854C94.504 5.61938 110.027 19.732 117.646 42.6408C118.882 46.3599 119.389 50.248 119.89 54.1186Z" fill="white"/>
<path d="M118.649 73.967C117.693 79.2367 116.276 84.4072 114.557 89.5019C110.109 102.618 103.953 114.958 97.372 127.095C97.3254 127.176 97.2788 127.264 97.2321 127.345C90.6801 139.394 83.7141 151.193 76.6957 162.968C76.0137 164.122 75.3317 165.27 74.638 166.424C73.8452 167.748 73.0583 169.071 72.2597 170.4C71.2512 172.102 70.2369 173.798 69.2227 175.501C67.4564 178.468 65.6901 181.435 63.8889 184.378C62.9562 185.912 61.5922 186.495 60.1058 186.081C59.0273 185.778 58.3978 184.985 57.8557 184.064C57.2436 183.049 56.6374 182.035 56.0253 181.021L55.9203 181.091L33.029 146.092L52.8425 133.105L60.3214 144.547L74.1833 117.756C69.9397 118.817 65.5736 119.394 61.1667 119.441C57.2552 119.488 53.3846 119.056 49.5199 118.479L39.8025 115.704C38.4793 115.127 37.1327 114.608 35.8503 113.961C35.7046 113.891 35.5588 113.816 35.4073 113.734C14.0257 102.466 3.03175 84.5179 2.05827 60.1926C2.01163 58.9101 1.98832 57.7443 2.00581 56.6018C2.09324 54.4042 2.30893 52.2007 2.64703 49.9856C2.79276 49.0296 2.9618 48.0853 3.15417 47.1468C4.08101 42.6874 5.53249 38.3796 7.44448 34.2991L33.4662 43.5793C30.7264 48.2718 29.1875 53.6872 29.2516 59.4173C29.2516 60.2509 29.2808 61.0728 29.3449 61.8772C30.5574 78.269 44.1803 91.3032 60.7353 91.3498C61.7204 91.3498 62.6939 91.309 63.6674 91.2274C78.3979 89.9625 90.2137 78.9336 92.4871 64.6286L118.649 73.967Z" fill="white"/>
<path d="M7.704 236H2.952V210.872H14.292C15.444 210.872 16.476 211.052 17.388 211.412C18.3 211.772 19.068 212.3 19.692 212.996C20.34 213.668 20.832 214.484 21.168 215.444C21.528 216.404 21.708 217.472 21.708 218.648C21.708 220.376 21.312 221.864 20.52 223.112C19.752 224.36 18.588 225.248 17.028 225.776L22.176 236H16.884L12.204 226.316H7.704V236ZM13.824 222.32C14.736 222.32 15.456 222.08 15.984 221.6C16.512 221.096 16.776 220.388 16.776 219.476V217.82C16.776 216.908 16.512 216.212 15.984 215.732C15.456 215.252 14.736 215.012 13.824 215.012H7.704V222.32H13.824ZM29.0542 236V232.184H32.3663V214.688H29.0542V210.872H40.4662V214.688H37.1183V232.184H40.4662V236H29.0542ZM48.5609 210.872H57.7049C59.3369 210.872 60.8129 211.136 62.1329 211.664C63.4769 212.192 64.6169 212.984 65.5529 214.04C66.5129 215.072 67.2449 216.38 67.7489 217.964C68.2769 219.524 68.5409 221.348 68.5409 223.436C68.5409 225.524 68.2769 227.36 67.7489 228.944C67.2449 230.504 66.5129 231.812 65.5529 232.868C64.6169 233.9 63.4769 234.68 62.1329 235.208C60.8129 235.736 59.3369 236 57.7049 236H48.5609V210.872ZM57.7049 231.788C59.4809 231.788 60.8849 231.272 61.9169 230.24C62.9729 229.184 63.5009 227.576 63.5009 225.416V221.456C63.5009 219.296 62.9729 217.7 61.9169 216.668C60.8849 215.612 59.4809 215.084 57.7049 215.084H53.3129V231.788H57.7049ZM76.6212 236V210.872H93.1812V215.084H81.3732V221.168H91.8132V225.38H81.3732V231.788H93.1812V236H76.6212ZM106.199 236H101.447V210.872H112.787C113.939 210.872 114.971 211.052 115.883 211.412C116.795 211.772 117.563 212.3 118.187 212.996C118.835 213.668 119.327 214.484 119.663 215.444C120.023 216.404 120.203 217.472 120.203 218.648C120.203 220.376 119.807 221.864 119.015 223.112C118.247 224.36 117.083 225.248 115.523 225.776L120.671 236H115.379L110.699 226.316H106.199V236ZM112.319 222.32C113.231 222.32 113.951 222.08 114.479 221.6C115.007 221.096 115.271 220.388 115.271 219.476V217.82C115.271 216.908 115.007 216.212 114.479 215.732C113.951 215.252 113.231 215.012 112.319 215.012H106.199V222.32H112.319Z" fill="white"/>
</svg>
